<svg version="1.2" xmlns="http://www.w3.org/2000/svg" viewBox="0 0 626 73" width="626" height="73">
	<title>logo-svg</title>
	<style>
		.s0 { fill: #1d6e6c;stroke: #1d6e6c;stroke-width: .1 } 
		.s1 { fill: #26716f;stroke: #26716f;stroke-width: .1 } 
		.s2 { fill: #2e7473;stroke: #2e7473;stroke-width: .1 } 
		.s3 { fill: #377776;stroke: #377776;stroke-width: .1 } 
		.s4 { fill: #3f7a79;stroke: #3f7a79;stroke-width: .1 } 
		.s5 { fill: #487d7c;stroke: #487d7c;stroke-width: .1 } 
		.s6 { fill: #508080;stroke: #508080;stroke-width: .1 } 
		.s7 { fill: #598383;stroke: #598383;stroke-width: .1 } 
	</style>
	<g id="logo-group">
		<g id="logo-center">
			<g id="slogan">
			</g>
			<g id="title">
				<path id="path364096" class="s0" d="m54 68.5h-5.2l-15-21.1c-2.3 0.4-4.4 0.5-6.2 0.5h-18v20.6h-4.5v-24.7h22.5c6.7 0 11.8-1.4 15.4-4.4c3.5-2.9 5.3-7.2 5.3-12.7c0-5.4-1.8-9.6-5.3-12.6c-3.6-2.9-8.7-4.5-15.4-4.5h-22.5v-4.1h22.5q11.9 0 18.7 5.7c4.5 3.7 6.7 9 6.7 15.5c0 5.1-1.3 9.2-3.8 12.6c-2.6 3.5-6.3 5.8-10.9 7.1z" />
				<path id="path364098" class="s1" d="m123.2 38.5h-40.8v-4h40.8zm0-28.9h-40.8v-4.1h40.8zm0 54.7v4.1h-40.8v-4.1z" />
				<path id="path364100" class="s2" d="m148.8 60.4l2.1-3.4c2.1 2.3 5.1 4.3 8.9 5.7q5.7 2.2 11.9 2.2c5.9 0 10.5-1.1 13.6-3.4q4.6-3.4 4.6-8.9q0-4.2-2.5-6.8c-1.6-1.6-3.7-2.9-6-3.9c-2.4-0.8-5.7-1.7-9.7-2.7c-4.7-1.1-8.4-2.3-11.2-3.4c-2.8-1-5.1-2.7-7.1-4.9c-2-2.3-2.9-5.3-2.9-9.1q0-4.6 2.5-8.4c1.6-2.5 4-4.6 7.3-6.1c3.4-1.4 7.5-2.2 12.5-2.2c3.5 0 6.9 0.5 10.3 1.5c3.3 1.1 6.2 2.4 8.7 4.1l-1.7 3.7c-2.5-1.7-5.3-3-8.3-4q-4.6-1.3-9-1.3q-8.7 0-13.2 3.5c-3 2.3-4.5 5.4-4.5 9.1q0 4.3 2.4 6.7c1.7 1.8 3.6 3 6.1 3.9c2.3 0.9 5.6 1.9 9.8 2.9c4.6 1.2 8.3 2.2 11.1 3.3c2.7 1.1 5 2.8 7 5c2 2.1 2.9 5.1 2.9 8.8c0 3.1-0.9 5.8-2.5 8.4c-1.6 2.5-4.1 4.6-7.5 6c-3.5 1.5-7.7 2.2-12.6 2.2c-4.7 0-9.1-0.7-13.3-2.3q-6.2-2.4-9.7-6.2z" />
				<path id="path364102" class="s3" d="m222 41.8v-36.3h4.6v36.1c0 7.7 1.7 13.6 5.3 17.4c3.5 3.8 8.7 5.7 15.4 5.7c6.7 0 11.7-1.9 15.3-5.7c3.5-3.8 5.3-9.7 5.3-17.4v-36.1h4.6v36.3c0 8.9-2.2 15.6-6.7 20.2c-4.5 4.7-10.7 6.9-18.6 6.9c-8 0-14.2-2.2-18.6-6.9c-4.4-4.6-6.6-11.3-6.6-20.2z" />
				<path id="path364104" class="s4" d="m365.9 14.6l-26.4 45.5h-2.2l-26.4-45.3v53.7h-4.5v-63h3.9l28.2 48.7l28.1-48.7h3.8l0.1 63h-4.5z" />
				<path id="path364106" class="s5" d="m445.6 38.5h-40.7v-4h40.7zm0-28.9h-40.7v-4.1h40.7zm0 54.7v4.1h-40.7v-4.1z" />
				<path id="path364108" class="s6" d="m537.2 14.6l-26.4 45.5h-2.3l-26.3-45.3v53.7h-4.5v-63h3.8l28.2 48.7l28.2-48.7h3.8l0.1 63h-4.5z" />
				<path id="path364110" class="s7" d="m595.6 68.5h-4.6v-21.7l-25.4-41.3h5l22.8 37.1l22.8-37.1h4.7l-25.3 41.3z" />
			</g>
		</g>
	</g>
</svg>